<svg xmlns="http://www.w3.org/2000/svg" width="567" height="311" fill="none"><path fill="#F1FAEE" d="M239.282 36.373c1.54 0 2.502 1.667 1.732 3l-32.909 57c-.77 1.333-2.694 1.333-3.464 0l-32.909-57c-.77-1.333.192-3 1.732-3h65.818Z"/><path fill="#457B9D" d="M276.282 99.373c1.54 0 2.502 1.667 1.732 3l-32.909 57c-.77 1.333-2.694 1.333-3.464 0l-32.909-57c-.77-1.333.192-3 1.732-3h65.818ZM313.282 163.373c1.54 0 2.502 1.667 1.732 3l-32.909 57c-.77 1.333-2.694 1.333-3.464 0l-32.909-57c-.77-1.333.193-3 1.732-3h65.818ZM386.282 163.373c1.54 0 2.502 1.667 1.732 3l-32.909 57c-.77 1.333-2.694 1.333-3.464 0l-32.909-57c-.77-1.333.193-3 1.732-3h65.818ZM423.282 99.373c1.54 0 2.502 1.667 1.732 3l-32.909 57c-.77 1.333-2.694 1.333-3.464 0l-32.909-57c-.77-1.333.193-3 1.732-3h65.818ZM350.282 227.373c1.54 0 2.502 1.667 1.732 3l-32.909 57c-.77 1.333-2.694 1.333-3.464 0l-32.909-57c-.77-1.333.193-3 1.732-3h65.818ZM242.268 39c.77-1.333 2.694-1.333 3.464 0l32.909 57c.77 1.333-.192 3-1.732 3h-65.818c-1.54 0-2.502-1.667-1.732-3l32.909-57ZM278.268 103c.77-1.333 2.694-1.333 3.464 0l32.909 57c.77 1.333-.192 3-1.732 3h-65.818c-1.54 0-2.502-1.667-1.732-3l32.909-57ZM315.268 167c.77-1.333 2.694-1.333 3.464 0l32.909 57c.77 1.333-.192 3-1.732 3h-65.818c-1.54 0-2.502-1.667-1.732-3l32.909-57ZM352.268 103c.77-1.333 2.694-1.333 3.464 0l32.909 57c.77 1.333-.192 3-1.732 3h-65.818c-1.54 0-2.502-1.667-1.732-3l32.909-57Z"/><path fill="#F1FAEE" d="M127.282 99.373c1.54 0 2.502 1.667 1.732 3l-32.909 57c-.77 1.333-2.694 1.333-3.464 0l-32.909-57c-.77-1.333.193-3 1.732-3h65.818ZM127.282 226.373c1.54 0 2.502 1.667 1.732 3l-32.909 57c-.77 1.333-2.694 1.333-3.464 0l-32.909-57c-.77-1.333.193-3 1.732-3h65.818ZM90.282 162.373c1.54 0 2.502 1.667 1.732 3l-32.909 57c-.77 1.333-2.694 1.333-3.464 0l-32.909-57c-.77-1.333.192-3 1.732-3h65.818ZM201.282 227.373c1.54 0 2.502 1.667 1.732 3l-32.909 57c-.77 1.333-2.694 1.333-3.464 0l-32.909-57c-.77-1.333.192-3 1.732-3h65.818ZM164.282 36.373c1.54 0 2.502 1.667 1.732 3l-32.909 57c-.77 1.333-2.694 1.333-3.464 0l-32.909-57c-.77-1.333.192-3 1.732-3h65.818ZM167.268 39c.77-1.333 2.694-1.333 3.464 0l32.909 57c.77 1.333-.192 3-1.732 3h-65.818c-1.54 0-2.502-1.667-1.732-3l32.909-57ZM55.268 102c.77-1.333 2.694-1.333 3.464 0l32.909 57c.77 1.333-.192 3-1.732 3H24.091c-1.54 0-2.502-1.667-1.732-3l32.909-57ZM129.268 230c.77-1.333 2.694-1.333 3.464 0l32.909 57c.77 1.333-.192 3-1.732 3H98.091c-1.54 0-2.502-1.667-1.732-3l32.909-57ZM204.268 230c.77-1.333 2.694-1.333 3.464 0l32.909 57c.77 1.333-.192 3-1.732 3h-65.818c-1.54 0-2.502-1.667-1.732-3l32.909-57ZM92.268 166c.77-1.333 2.694-1.333 3.464 0l32.909 57c.77 1.333-.192 3-1.732 3H61.091c-1.54 0-2.502-1.667-1.732-3l32.909-57ZM92.268 39c.77-1.333 2.694-1.333 3.464 0l32.909 57c.77 1.333-.192 3-1.732 3H61.091c-1.54 0-2.502-1.667-1.732-3l32.909-57ZM301.904 67.588h3.816c1.512 0 2.832-.42 3.96-1.26 1.152-.864 2.04-2.052 2.664-3.564.624-1.536.936-3.324.936-5.364s-.312-3.816-.936-5.328c-.624-1.536-1.512-2.724-2.664-3.564-1.128-.864-2.448-1.296-3.96-1.296h-3.816v20.376ZM299.132 70V44.8h6.948c1.968 0 3.696.54 5.184 1.62 1.512 1.056 2.688 2.532 3.528 4.428.864 1.872 1.296 4.056 1.296 6.552 0 2.472-.432 4.656-1.296 6.552-.84 1.896-2.016 3.384-3.528 4.464-1.488 1.056-3.216 1.584-5.184 1.584h-6.948Zm35.986 0V44.8h15.768v2.412H337.89v8.856h8.568v2.412h-8.568v9.108h13.14V70h-15.912Zm43.294.396c-1.68 0-3.264-.312-4.752-.936-1.488-.648-2.988-1.656-4.5-3.024l1.656-2.088c1.488 1.344 2.808 2.292 3.96 2.844a8.47 8.47 0 0 0 3.708.828c1.104 0 2.076-.204 2.916-.612.864-.432 1.536-1.008 2.016-1.728a4.331 4.331 0 0 0 .756-2.484c0-1.032-.264-1.848-.792-2.448-.504-.624-1.176-1.104-2.016-1.44-.84-.36-1.764-.66-2.772-.9-1.008-.264-2.028-.54-3.06-.828a12.464 12.464 0 0 1-2.772-1.152 6.104 6.104 0 0 1-2.052-2.016c-.504-.84-.756-1.932-.756-3.276 0-1.32.324-2.484.972-3.492.672-1.008 1.596-1.8 2.772-2.376 1.2-.576 2.568-.864 4.104-.864s3 .252 4.392.756c1.416.48 2.916 1.284 4.5 2.412l-1.44 2.16c-1.32-1.008-2.592-1.752-3.816-2.232-1.224-.504-2.424-.756-3.6-.756-1.536 0-2.796.396-3.78 1.188-.96.768-1.44 1.74-1.44 2.916 0 1.056.252 1.896.756 2.52.528.624 1.212 1.116 2.052 1.476.864.36 1.8.672 2.808.936 1.032.24 2.052.504 3.06.792 1.032.288 1.968.684 2.808 1.188a5.42 5.42 0 0 1 2.052 1.98c.528.84.792 1.944.792 3.312 0 1.392-.372 2.652-1.116 3.78-.72 1.104-1.728 1.98-3.024 2.628-1.272.624-2.736.936-4.392.936ZM405.758 70v-2.412h6.552V47.212h-6.552V44.8h15.84v2.412h-6.516v20.376h6.516V70h-15.84Zm43.942.396c-1.752 0-3.372-.504-4.86-1.512-1.464-1.008-2.64-2.472-3.528-4.392-.888-1.944-1.332-4.308-1.332-7.092s.444-5.136 1.332-7.056c.888-1.944 2.052-3.42 3.492-4.428 1.464-1.008 3.036-1.512 4.716-1.512 2.208 0 4.104.684 5.688 2.052 1.584 1.368 2.712 3.264 3.384 5.688l-2.628.828c-.48-1.944-1.308-3.432-2.484-4.464-1.152-1.056-2.472-1.584-3.96-1.584-1.248 0-2.388.42-3.42 1.26-1.008.816-1.812 2.004-2.412 3.564-.6 1.56-.9 3.444-.9 5.652s.3 4.092.9 5.652c.6 1.56 1.416 2.76 2.448 3.6a5.68 5.68 0 0 0 3.564 1.224c1.248 0 2.34-.36 3.276-1.08.936-.72 1.68-1.728 2.232-3.024.576-1.296.9-2.808.972-4.536h-5.796v-2.412h8.568v1.116c0 2.616-.384 4.86-1.152 6.732-.768 1.848-1.848 3.264-3.24 4.248-1.392.984-3.012 1.476-4.86 1.476ZM476.866 70V44.8h3.168l10.512 20.52-.072-20.52h2.52V70h-2.808l-10.872-21.132.072 21.132h-2.52Zm36.382 0V44.8h15.768v2.412H516.02v8.856h8.568v2.412h-8.568v9.108h13.14V70h-15.912Zm35.806 0V44.8h7.812c1.608 0 3.012.312 4.212.936 1.2.6 2.136 1.44 2.808 2.52.672 1.08 1.008 2.352 1.008 3.816 0 1.68-.468 3.12-1.404 4.32-.936 1.176-2.208 2.004-3.816 2.484L565.326 70h-3.06l-5.4-10.764h-5.04V70h-2.772Zm2.772-13.068h4.824c1.656 0 2.976-.432 3.96-1.296 1.008-.888 1.512-2.064 1.512-3.528 0-1.488-.504-2.676-1.512-3.564-.984-.888-2.304-1.332-3.96-1.332h-4.824v9.72Z"/></svg>